<svg xmlns="http://www.w3.org/2000/svg" width="168.5" height="138" viewBox="0 0 168.5 138">
<g transform="translate(.5 .5)">
<g>
<path d="M20 21v20m10 -20v20m-10 -10h20"></path>
</g>
<path d="M40 31h10"></path>
<g>
<path d="M50 31h0"></path>
<g class="terminal">
<path d="M50 31h0"></path>
<path d="M78.5 31h0"></path>
<rect x="50" y="20" width="28.5" height="22" rx="10" ry="10"></rect>
<text x="64.25" y="35">1</text>
</g>
<path d="M64.25 42v16"></path>
<g class="terminal">
<path d="M50 69h0"></path>
<path d="M78.5 69h0"></path>
<rect x="50" y="58" width="28.5" height="22" rx="10" ry="10"></rect>
<text x="64.25" y="73">2</text>
</g>
<path d="M64.25 80v16"></path>
<g class="terminal">
<path d="M50 107h0"></path>
<path d="M78.5 107h0"></path>
<rect x="50" y="96" width="28.5" height="22" rx="10" ry="10"></rect>
<text x="64.25" y="111">3</text>
</g>
<path d="M78.5 107h40"></path>
<path d="M88.5 107h0"></path>
</g>
<path d="M118.5 107h10"></path>
<path d="M 128.5 107 h 20 m -10 -10 v 20 m 10 -20 v 20"></path>
</g>
<style>
svg {
    background-color: hsl(30,20%,95%);
}
path {
    stroke-width: 3;
    stroke: black;
    fill: rgba(0,0,0,0);
}
text {
    font: bold 14px monospace;
    text-anchor: middle;
    white-space: pre;
}
text.diagram-text {
    font-size: 12px;
}
text.diagram-arrow {
    font-size: 16px;
}
text.label {
    text-anchor: start;
}
text.comment {
    font: italic 12px monospace;
}
g.non-terminal text {
    /*font-style: italic;*/
}
rect {
    stroke-width: 3;
    stroke: black;
    fill: hsl(120,100%,90%);
}
path.diagram-text {
    stroke-width: 3;
    stroke: black;
    fill: white;
    cursor: help;
}
g.diagram-text:hover path.diagram-text {
    fill: #eee;
}
</style>
</svg>